# xmcd
#
# Track frame offsets:
#	150
#	23687
#	41462
#	59272
#	87962
#	105212
#	121562
#	146275
#	161875
#	178825
#	196225
#
# Disc length: 3017 seconds
#
# Revision: 1
# Processed by: cddbd v1.4PL0 Copyright (c) Steve Scherf et al.
# Submitted via: audiograbber 1.82.01
#
DISCID=810bc70b
DTITLE=The Chicago Dave Blues Band - ...nothin', but the Blues!
DYEAR=1900
DGENRE=Blues
TTITLE0=The Gold Coast of My Heart
TTITLE1=True Love
TTITLE2=All the Way to Chicago
TTITLE3=Find Your Own Way Home
TTITLE4=Dahada and Sistuphi
TTITLE5=Caledonia
TTITLE6=Jump
TTITLE7=Out of the Blue
TTITLE8=Tell Me Why I Play the Blues
TTITLE9=Love Affair
TTITLE10=Tanja's 2nd Birthday
EXTD=
EXTT0=
EXTT1=
EXTT2=
EXTT3=
EXTT4=
EXTT5=
EXTT6=
EXTT7=
EXTT8=
EXTT9=
EXTT10=
PLAYORDER=
